<?xml version="1.0" encoding="UTF-8" standalone="no"?>
<!-- Created with Inkscape (http://www.inkscape.org/) -->

<svg
   width="100"
   height="100"
   viewBox="0 0 26.458333 26.458333"
   version="1.1"
   id="svg5"
   sodipodi:docname="01.svg"
   inkscape:export-filename="../green_stand/01.svg"
   inkscape:export-xdpi="96"
   inkscape:export-ydpi="96"
   inkscape:version="1.2.2 (b0a8486, 2022-12-01)"
   xmlns:inkscape="http://www.inkscape.org/namespaces/inkscape"
   xmlns:sodipodi="http://sodipodi.sourceforge.net/DTD/sodipodi-0.dtd"
   xmlns="http://www.w3.org/2000/svg"
   xmlns:svg="http://www.w3.org/2000/svg">
  <sodipodi:namedview
     id="namedview7"
     pagecolor="#ffffff"
     bordercolor="#000000"
     borderopacity="0.25"
     inkscape:showpageshadow="2"
     inkscape:pageopacity="0.0"
     inkscape:pagecheckerboard="0"
     inkscape:deskcolor="#d1d1d1"
     inkscape:document-units="mm"
     showgrid="false"
     inkscape:zoom="3.6829588"
     inkscape:cx="52.94656"
     inkscape:cy="50.910154"
     inkscape:window-width="1271"
     inkscape:window-height="867"
     inkscape:window-x="0"
     inkscape:window-y="25"
     inkscape:window-maximized="0"
     inkscape:current-layer="layer1" />
  <defs
     id="defs2" />
  <g
     inkscape:label="레이어 1"
     inkscape:groupmode="layer"
     id="layer1">
    <g
       id="g858"
       transform="matrix(1.0365524,0,0,0.96767519,-0.07352581,0.82274966)">
      <path
         style="fill:#87de87;stroke-width:0.299451"
         d="m 18.225977,25.381834 c 2.383996,-0.065 3.117533,-3.509678 3.056405,-6.499405 C 21.221254,15.892703 19.448541,0.74908954 11.318504,1.0090657 3.1884659,1.2690419 1.8436477,16.867615 2.0270323,19.337388 c 0.1833841,2.469773 0.7335371,5.979453 3.6676856,6.10944 2.9341483,0.129989 2.783868,-1.987511 6.2070411,-2.052506 3.423172,-0.065 3.756838,2.117501 6.324218,1.987512 z"
         id="path113"
         sodipodi:nodetypes="csssssc" />
      <ellipse
         style="fill:#ff8080;stroke-width:0.310412"
         id="path221"
         cx="16.542212"
         cy="8.184062"
         rx="1.0181155"
         ry="1.137396" />
      <ellipse
         style="fill:#ff8080;stroke-width:0.310412"
         id="path223"
         cx="10.597732"
         cy="8.184062"
         rx="1.0509578"
         ry="1.137396" />
      <path
         style="fill:#008000;stroke-width:0.264583"
         d="m 5.531671,14.727176 4.0151024,3.879355 6.5453596,-2.155197 -1.149438,-1.939678 -4.344964,1.652319 -3.2700628,-2.934809 z"
         id="path748" />
      <path
         style="fill:#008000;stroke-width:0.264583"
         d="m 20.546206,13.229166 2.586236,-0.441667 -0.502879,-4.6034376 1.005758,-0.5690341 1.960933,6.3937497 -4.756129,0.765477 z"
         id="path750" />
    </g>
  </g>
</svg>
